<?xml version="1.0" encoding="utf-8"?>
<!-- Generator: Adobe Illustrator 21.0.0, SVG Export Plug-In . SVG Version: 6.00 Build 0)  -->
<svg version="1.1" id="Ebene_1" xmlns="http://www.w3.org/2000/svg" xmlns:xlink="http://www.w3.org/1999/xlink" x="0px" y="0px"
	 viewBox="0 0 1367.1 238.8" style="enable-background:new 0 0 1367.1 238.8;" xml:space="preserve">
<style type="text/css">
	.st0{fill:#0091FF;}
	.st1{fill:#FFFFFF;}
	.st2{opacity:0.65;}
</style>
<path class="st0" d="M119.4,0C53.5,0,0,53.5,0,119.4c0,65.9,53.5,119.4,119.4,119.4c65.9,0,119.4-53.5,119.4-119.4
	C238.8,53.5,185.3,0,119.4,0z"/>
<g>
	<path class="st1" d="M357.2,174.6c-7,9.5-16.5,14.3-28.3,14.3c-11.9,0-20.9-4.1-27.1-12.3c-6.1-8.2-9.2-20.1-9.2-35.8v-84h33.9
		v84.8c0.2,12.6,4.4,18.9,12.6,18.9c7.7,0,13.3-3.4,16.8-10.1V56.8H390v129.6h-31.9L357.2,174.6z"/>
	<path class="st1" d="M511.3,125.7c0,20.4-3.5,36-10.5,46.9c-7,10.9-17.4,16.3-31.2,16.3c-10.5,0-19-4.3-25.4-12.8v60.3h-33.9V56.8
		l31.4,0l1.2,11.9c6.5-9.5,15.3-14.3,26.5-14.3c13.8,0,24.2,5,31.2,15.1c7,10.1,10.6,25.5,10.7,46.3V125.7z M477.5,117.3
		c0-12.6-1.4-21.5-4.1-26.7c-2.8-5.2-7.4-7.8-14-7.8c-6.9,0-12,2.9-15.2,8.8v60.9c3,5.6,8.2,8.4,15.5,8.4c6.7,0,11.4-2.8,14-8.5
		c2.6-5.7,3.9-14.5,3.9-26.6V117.3z"/>
	<path class="st1" d="M523.3,117.7c0-21.2,3.6-37.1,10.8-47.6c7.2-10.5,17.6-15.7,31.4-15.7c10,0,18.3,4.3,24.9,12.9V2.4h34.1v184
		h-30.8l-1.6-13.2c-6.9,10.4-15.9,15.6-26.8,15.6c-13.6,0-23.9-5.2-31.1-15.6c-7.1-10.4-10.8-25.6-11-45.8V117.7z M557.4,126.2
		c0,12.8,1.4,21.7,4.1,26.8c2.7,5.1,7.3,7.6,13.8,7.6c6.7,0,11.8-3,15.2-9V92.4c-3.4-6.4-8.4-9.6-15.1-9.6c-6.2,0-10.8,2.5-13.7,7.5
		c-2.9,5-4.3,14-4.3,26.8V126.2z"/>
	<path class="st1" d="M707.2,186.4c-1-2-1.9-5.3-2.9-10.1c-6.1,8.3-14.3,12.5-24.7,12.5c-10.9,0-19.9-3.6-27-10.8
		c-7.1-7.2-10.7-16.5-10.7-27.9c0-13.6,4.3-24.1,13-31.5c8.7-7.4,21.2-11.2,37.4-11.4h10.3V96.8c0-5.8-1-9.9-3-12.3
		c-2-2.4-4.9-3.6-8.7-3.6c-8.5,0-12.7,5-12.7,14.9h-33.9c0-12,4.5-21.9,13.5-29.7c9-7.8,20.3-11.7,34.1-11.7
		c14.2,0,25.2,3.7,33,11.1c7.8,7.4,11.7,18,11.7,31.7v61c0.2,11.2,1.8,19.9,4.8,26.2v2H707.2z M687.2,162.2c3.8,0,7-0.8,9.6-2.3
		c2.6-1.5,4.6-3.3,5.9-5.4v-27h-8.1c-5.8,0-10.3,1.8-13.6,5.5c-3.3,3.7-5,8.6-5,14.7C675.9,157.4,679.7,162.2,687.2,162.2z"/>
	<path class="st1" d="M797,130l17.3-73.2h36.2l-42.7,149.1c-6.4,22-18.4,33-36.1,33c-4.1,0-8.7-0.8-13.9-2.3V210l4,0.1
		c5.3,0,9.2-1,11.9-3.1c2.7-2,4.7-5.6,6.1-10.6l2.6-8.7l-37.4-131h36.4L797,130z"/>
</g>
<path class="st1" d="M197,119.4c0,42.9-34.7,77.6-77.6,77.6s-77.6-34.7-77.6-77.6H80c0,21.8,17.6,39.4,39.4,39.4
	c21.8,0,39.4-17.6,39.4-39.4H197z"/>
<g class="st2">
	<g>
		<path class="st1" d="M1343.4,148.8v9.8h6.9v9.7c0,0.9,0,1.8-0.2,2.6c-0.3,1.8-2,4.9-6.9,4.9c-4.8,0-6.5-3.1-6.8-4.9
			c-0.1-0.7-0.2-1.7-0.2-2.6v-30.6c0-1.1,0.1-2.3,0.3-3.2c0.3-1.6,1.8-4.9,6.7-4.9c5.1,0,6.4,3.4,6.7,4.9c0.2,1,0.2,2.6,0.2,2.6v3.7
			h16.9v-2.2c0,0,0.1-2.3-0.1-4.4c-1.3-12.6-11.6-16.6-23.5-16.6c-11.9,0-22.1,4-23.5,16.6c-0.1,1.1-0.3,3.2-0.3,4.4v28.2
			c0,1.2,0,2.2,0.3,4.4c1.1,12.2,11.7,16.6,23.6,16.6c11.9,0,22.5-4.3,23.6-16.6c0.2-2.2,0.2-3.2,0.2-4.4v-18H1343.4z M1226.9,119.4
			h-17V169c0,0.9,0,1.8-0.2,2.5c-0.4,1.7-1.8,4.9-6.4,4.9c-4.6,0-6.1-3.2-6.4-4.9c-0.2-0.7-0.2-1.7-0.2-2.5v-49.6h-17v48.1
			c0,1.2,0.1,3.8,0.1,4.4c1.2,12.5,11,16.6,23.4,16.6c12.3,0,22.2-4.1,23.4-16.6c0.1-0.7,0.2-3.2,0.1-4.4V119.4z M1071.1,119.4
			l-8.5,52.4l-8.5-52.4h-27.4l-1.5,67.1h16.8l0.5-62.1l11.5,62.1h17l11.5-62.1l0.5,62.1h16.8l-1.5-67.1H1071.1z M969.8,119.4
			l-12.4,67.1h18.1l9.4-62.1l9.1,62.1h18l-12.4-67.1H969.8z M1286.2,173.4l-15.8-54h-24.9v66.4h16.5l-1-55.7l17,55.7h23.9v-66.4
			h-16.6L1286.2,173.4z M1133.9,136.9c-0.3-1.3-0.2-2.7-0.1-3.5c0.5-2.1,1.9-4.5,6.1-4.5c3.9,0,6.1,2.4,6.1,6v4.1h16.5v-4.7
			c0-14.4-13-16.7-22.3-16.7c-11.8,0-21.5,3.9-23.2,14.8c-0.5,3-0.6,5.6,0.2,8.9c2.9,13.6,26.5,17.5,29.9,26.1
			c0.6,1.6,0.4,3.7,0.1,4.9c-0.5,2.2-2,4.5-6.5,4.5c-4.2,0-6.7-2.4-6.7-6l0-6.4h-17.8v5.1c0,14.8,11.6,19.3,24.1,19.3
			c12,0,21.9-4.1,23.5-15.2c0.8-5.7,0.2-9.5-0.1-10.9C1161,148.8,1135.8,144.6,1133.9,136.9 M915.8,136.7c-0.3-1.4-0.2-2.8-0.1-3.5
			c0.5-2.1,1.9-4.5,6.1-4.5c3.9,0,6.2,2.4,6.2,6.1v4.2h16.7v-4.7c0-14.6-13.2-16.9-22.6-16.9c-11.9,0-21.6,4-23.4,14.9
			c-0.5,3-0.6,5.7,0.1,9c2.9,13.7,26.7,17.7,30.2,26.3c0.7,1.6,0.5,3.7,0.1,5c-0.6,2.3-2.1,4.5-6.5,4.5c-4.2,0-6.7-2.4-6.7-6.1
			l0-6.5h-18v5.1c0,15,11.8,19.5,24.4,19.5c12.1,0,22.1-4.1,23.7-15.4c0.8-5.8,0.2-9.5-0.1-11C943.2,148.7,917.8,144.5,915.8,136.7"
			/>
		<path class="st1" d="M899.6,64.8H894v-7.9h5.7v-2.8c0-4.3,1.3-7.6,3.9-10c2.6-2.4,6.3-3.6,11.1-3.6c1.5,0,2.9,0.1,4.1,0.3v8
			c-1.3-0.2-2.7-0.3-4.1-0.3c-3.9,0-5.8,1.8-5.8,5.5v2.8h8.7v7.9h-8.7v29.1h-9.2V64.8z"/>
		<path class="st1" d="M944.6,75.3c0-7.5-2.3-11.2-7-11.2c-4.7,0-7,3.7-7,11.2c0,7.5,2.3,11.2,7,11.2
			C942.3,86.5,944.6,82.8,944.6,75.3 M925.4,89.8c-2.8-3.3-4.2-8.1-4.2-14.5c0-6.4,1.4-11.2,4.3-14.5c2.8-3.3,6.9-4.9,12.2-4.9
			c5.3,0,9.3,1.6,12.2,4.9c2.8,3.3,4.2,8.1,4.2,14.5c0,6.4-1.4,11.2-4.3,14.5c-2.8,3.3-6.9,4.9-12.2,4.9
			C932.3,94.7,928.3,93.1,925.4,89.8"/>
		<path class="st1" d="M982.5,57l-1.8,8.6c-1.4-0.4-2.8-0.6-4.3-0.6c-1.5,0-2.8,0.3-3.9,0.8c-1.1,0.5-2,1.4-2.7,2.5v25.5h-9.2v-37
			h8.3v5.8c2.1-4.4,5.3-6.6,9.6-6.6C979.9,56.1,981.3,56.4,982.5,57"/>
	</g>
</g>
</svg>
